<?xml version="1.0" standalone="no"?>
<!DOCTYPE svg PUBLIC "-//W3C//DTD SVG 20010904//EN"
 "http://www.w3.org/TR/2001/REC-SVG-20010904/DTD/svg10.dtd">
<svg version="1.0" xmlns="http://www.w3.org/2000/svg"
 width="700.000000pt" height="700.000000pt" viewBox="0 0 700.000000 700.000000"
 preserveAspectRatio="xMidYMid meet">
<metadata>
Created by potrace 1.14, written by Peter Selinger 2001-2017
</metadata>
<g transform="translate(0.000000,700.000000) scale(0.100000,-0.100000)"
fill="#000000" stroke="none">
<path d="M0 3500 l0 -3500 3500 0 3500 0 0 3500 0 3500 -1350 0 -1350 0 -1
-52 c-1 -56 -2 -68 -13 -133 -45 -270 -258 -517 -522 -609 -99 -35 -172 -45
-294 -42 -128 4 -206 23 -328 82 -111 54 -213 138 -286 238 -104 141 -152 281
-160 470 l-2 41 -1347 3 -1347 2 0 -3500z"/>
</g>
</svg>
